<?xml version="1.0" standalone="no"?>
<!DOCTYPE svg PUBLIC "-//W3C//DTD SVG 20010904//EN"
 "http://www.w3.org/TR/2001/REC-SVG-20010904/DTD/svg10.dtd">
<svg version="1.0" xmlns="http://www.w3.org/2000/svg"
 width="1280.000000pt" height="2228.000000pt" viewBox="0 0 1280.000000 2228.000000"
 preserveAspectRatio="xMidYMid meet">

<g transform="translate(0.000000,2228.000000) scale(0.100000,-0.100000)"
fill="#000000" stroke="none">
<path d="M0 11140 l0 -11140 6400 0 6400 0 0 11140 0 11140 -6400 0 -6400 0 0
-11140z m8089 1827 c135 -166 245 -305 245 -309 1 -9 -1897 -2967 -1904 -2967
-3 0 -32 44 -66 97 -33 53 -462 726 -952 1494 l-892 1397 207 295 206 296
1456 -1 1456 0 244 -302z m-4069 -3490 c9 -93 0 -98 -63 -32 -42 43 -46 45
-101 45 l-58 0 4 -195 c4 -209 5 -212 58 -230 60 -20 30 -30 -100 -33 -111 -2
-130 0 -130 13 0 8 8 15 18 15 10 0 28 7 40 16 21 15 22 20 22 216 l0 200 -61
-4 c-54 -4 -65 -9 -88 -35 -14 -16 -31 -38 -37 -48 -6 -12 -15 -16 -23 -11 -9
6 -11 24 -6 70 4 33 9 63 10 66 2 3 117 5 257 4 l253 -1 5 -56z m331 53 l137
0 11 -62 c6 -36 7 -66 2 -71 -5 -5 -30 12 -58 42 l-49 51 -82 0 -82 0 0 -90 0
-90 33 0 c41 0 73 22 81 55 5 18 12 25 24 23 15 -3 17 -15 13 -98 -1 -52 -5
-98 -8 -102 -9 -16 -22 -7 -28 21 -8 38 -25 52 -75 58 l-40 6 0 -85 c0 -113 8
-123 97 -123 79 0 126 22 158 73 40 63 56 31 33 -67 l-11 -51 -121 1 c-173 2
-321 12 -321 23 0 5 14 14 30 19 17 6 33 15 37 21 4 6 8 98 8 204 l0 193 -35
15 c-19 8 -35 18 -35 22 0 20 19 24 80 18 36 -3 126 -6 201 -6z m599 -10 c92
-47 93 -168 3 -217 l-33 -17 29 -31 c16 -16 34 -50 41 -75 20 -83 30 -98 71
-114 22 -9 37 -21 34 -26 -3 -6 -40 -10 -80 -10 -67 0 -76 2 -90 24 -9 13 -20
48 -25 77 -17 107 -42 139 -107 139 l-43 0 0 -87 c0 -49 4 -93 8 -100 4 -6 20
-15 35 -18 15 -4 27 -13 27 -21 0 -11 -23 -14 -115 -14 -92 0 -115 3 -115 14
0 8 12 17 27 21 15 3 31 12 35 18 12 19 10 376 -2 398 -6 10 -19 19 -30 19
-21 0 -34 15 -25 30 4 6 69 10 161 10 135 0 160 -3 194 -20z m451 10 l138 0
10 -37 c12 -42 14 -103 5 -103 -4 0 -29 23 -55 50 l-48 50 -79 0 -79 0 -7 -52
c-14 -121 -7 -136 58 -124 26 5 38 15 50 41 10 19 24 35 32 35 12 0 14 -17 12
-102 -3 -111 -17 -135 -42 -74 -17 40 -41 56 -87 56 l-32 0 5 -87 c4 -76 7
-88 29 -106 20 -16 35 -18 84 -14 75 6 120 28 147 73 11 19 27 34 35 34 17 0
14 -35 -7 -112 l-11 -38 -92 0 c-172 0 -347 12 -347 24 0 7 14 16 32 21 42 13
46 29 46 200 1 181 -5 216 -41 233 -15 7 -27 17 -27 21 0 18 19 23 74 17 32
-3 121 -6 197 -6z m487 -2 c28 -10 36 -10 39 0 10 28 32 10 38 -30 18 -120 5
-145 -39 -75 -33 52 -71 77 -120 77 -70 0 -102 -78 -50 -119 14 -11 57 -31 95
-43 38 -12 85 -35 103 -50 66 -54 71 -139 13 -205 -55 -62 -130 -79 -217 -48
-39 14 -45 14 -61 -1 -17 -16 -19 -15 -29 10 -5 15 -10 59 -10 97 0 81 17 92
45 29 10 -23 36 -56 57 -75 31 -29 46 -35 82 -35 37 0 48 5 70 31 52 61 21
123 -77 155 -73 24 -118 48 -147 79 -35 37 -36 122 -1 158 50 54 134 72 209
45z m653 -2 c122 -1 160 -4 164 -14 11 -30 17 -120 8 -125 -6 -4 -25 12 -43
34 -46 58 -80 69 -205 69 -58 0 -105 -2 -105 -5 0 -2 18 -53 41 -112 22 -59
56 -150 76 -201 42 -113 53 -125 101 -116 61 11 99 33 127 76 38 57 50 39 33
-48 l-14 -69 -178 0 c-98 0 -183 3 -189 7 -15 9 0 25 28 30 28 5 29 35 4 102
-20 56 -22 58 -51 52 -17 -3 -52 -6 -79 -6 l-48 0 -16 -52 c-21 -72 -20 -77
21 -94 35 -15 42 -40 11 -38 -9 0 -51 1 -92 2 -59 2 -75 5 -75 17 0 8 6 15 13
15 28 0 60 52 103 171 25 68 64 168 86 221 l40 98 40 -7 c23 -3 112 -6 199 -7z
m499 -156 c45 -94 86 -173 91 -176 9 -5 92 155 145 279 l29 68 85 -3 c66 -2
85 -6 85 -17 0 -8 -14 -18 -31 -23 -18 -4 -35 -16 -39 -26 -3 -9 -9 -101 -12
-204 l-6 -188 37 -15 c20 -9 34 -20 31 -25 -3 -6 -55 -10 -116 -10 -87 0 -109
3 -109 14 0 8 14 17 30 21 37 8 38 10 43 205 l5 155 -68 -135 c-38 -74 -78
-161 -90 -192 -31 -81 -44 -80 -83 5 -19 40 -61 126 -93 192 l-59 120 -8 -138
c-9 -168 -3 -198 41 -212 18 -5 32 -15 32 -22 0 -10 -23 -13 -85 -14 -47 -1
-91 -2 -97 -3 -23 -2 -13 29 10 32 43 6 50 35 52 207 3 230 5 214 -35 231 -19
8 -35 21 -35 29 0 12 16 15 83 15 l83 0 84 -170z m837 147 c93 -50 90 -174 -4
-229 -17 -11 -64 -21 -114 -25 l-84 -8 -3 -55 c-5 -87 5 -120 39 -133 54 -21
26 -32 -79 -32 -104 0 -126 9 -81 32 34 17 37 37 38 220 1 163 -7 213 -33 213
-17 0 -38 25 -28 34 4 4 77 6 162 4 124 -3 161 -7 187 -21z m358 3 c0 -8 -10
-16 -23 -18 -35 -5 -42 -39 -42 -206 0 -192 4 -216 42 -230 15 -6 28 -16 28
-23 0 -10 -26 -13 -105 -13 -81 0 -105 3 -105 13 0 8 11 19 25 25 l25 12 0
190 c0 190 -6 230 -35 230 -7 0 -17 5 -20 10 -15 24 10 31 108 28 83 -2 102
-6 102 -18z m435 0 c68 -35 89 -111 50 -175 -11 -18 -33 -38 -50 -45 l-29 -12
28 -28 c16 -16 33 -49 40 -77 19 -74 33 -96 74 -116 20 -10 35 -23 31 -28 -3
-5 -39 -9 -79 -9 -89 0 -97 8 -115 110 -13 73 -32 115 -55 124 -9 3 -34 6 -56
6 l-39 0 0 -87 c0 -49 4 -93 8 -100 4 -6 20 -15 35 -18 15 -4 27 -13 27 -21 0
-11 -23 -14 -115 -14 -92 0 -115 3 -115 14 0 8 12 17 27 21 15 3 31 12 35 18
12 19 10 376 -2 398 -6 10 -19 19 -30 19 -21 0 -34 15 -25 30 4 6 69 10 161
10 135 0 160 -3 194 -20z m592 1 c11 -9 23 -131 13 -131 -4 0 -28 23 -54 50
l-47 50 -82 0 -82 0 0 -90 c0 -89 0 -90 24 -90 43 0 72 17 86 49 7 17 19 31
27 31 11 0 13 -19 11 -102 -3 -108 -17 -136 -37 -75 -12 36 -44 57 -86 57 -25
0 -25 -1 -25 -90 0 -85 1 -90 25 -106 20 -13 40 -15 84 -11 73 6 117 29 143
73 11 19 26 34 34 34 16 0 17 -25 1 -95 -12 -49 -13 -50 -52 -53 -22 -2 -122
-1 -222 3 -137 5 -183 10 -183 20 0 7 14 15 30 19 44 8 50 35 50 210 0 192 -4
212 -41 225 -27 9 -36 21 -24 33 8 7 399 -3 407 -11z m-2664 -246 c-3 -106
-17 -132 -38 -70 -12 37 -35 55 -69 55 -33 0 -27 36 7 45 31 7 62 32 62 50 0
17 23 36 32 27 5 -5 7 -53 6 -107z"/>
<path d="M4800 12954 c-95 -135 -170 -247 -168 -250 3 -2 808 -3 1791 -2
l1785 3 -201 248 -201 247 -1417 0 -1418 0 -171 -246z m327 170 c2 -6 -5 -14
-17 -17 -21 -5 -22 -12 -21 -132 1 -163 0 -157 21 -162 11 -3 20 -12 20 -19 0
-11 -17 -14 -70 -14 -56 0 -70 3 -70 15 0 8 7 15 15 15 13 0 15 23 15 146 0
137 -1 146 -20 151 -21 6 -25 15 -13 27 11 11 136 2 140 -10z m1590 0 c2 -6
-5 -14 -15 -16 -26 -7 -35 -83 -26 -201 6 -76 10 -90 25 -94 11 -3 19 -12 19
-19 0 -11 -17 -14 -70 -14 -56 0 -70 3 -70 15 0 8 7 15 15 15 13 0 15 23 15
146 0 137 -1 146 -20 151 -21 6 -25 15 -13 27 11 11 136 2 140 -10z m1080 0
c2 -6 -5 -14 -15 -16 -26 -7 -36 -90 -27 -205 6 -72 11 -86 26 -90 11 -3 19
-12 19 -19 0 -11 -17 -14 -70 -14 -56 0 -70 3 -70 15 0 8 7 15 15 15 13 0 15
23 15 146 0 137 -1 146 -20 151 -21 6 -25 15 -13 27 11 11 136 2 140 -10z
m-1472 -3 c3 -5 -4 -12 -15 -16 -11 -3 -20 -9 -20 -13 0 -16 52 -83 62 -80 6
2 20 21 32 41 20 36 20 38 4 48 -34 19 -17 29 51 29 78 0 98 -13 48 -29 -20
-7 -48 -31 -75 -66 l-43 -55 32 -47 c43 -64 89 -113 117 -124 43 -17 11 -29
-74 -29 -86 0 -100 7 -64 31 21 14 20 15 -12 61 -18 26 -35 48 -38 48 -10 -1
-60 -78 -60 -93 0 -9 10 -17 23 -19 12 -2 22 -7 22 -13 0 -6 -34 -11 -77 -13
-63 -2 -78 0 -78 12 0 8 11 16 27 18 20 2 39 20 76 71 l49 67 -49 68 c-29 39
-62 73 -81 81 -18 8 -32 18 -32 23 0 11 167 10 175 -1z"/>
<path d="M4649 12613 c5 -10 158 -252 341 -538 183 -286 580 -908 882 -1382
303 -475 554 -863 558 -863 7 0 1800 2783 1800 2795 0 3 -403 5 -895 5 l-895
0 0 -1222 c0 -710 4 -1218 9 -1212 5 5 336 519 736 1142 545 849 732 1132 746
1132 10 0 19 -2 19 -4 0 -2 -215 -338 -478 -747 -263 -409 -606 -943 -762
-1186 l-284 -443 -20 33 c-12 17 -350 549 -753 1181 -403 632 -733 1153 -733
1158 0 5 8 8 17 6 19 -3 -18 53 818 -1258 345 -542 634 -994 641 -1005 12 -16
14 172 14 1203 l0 1222 -885 0 c-840 0 -885 -1 -876 -17z m371 -51 c0 -24 -30
-32 -112 -32 -48 0 -88 -2 -88 -5 0 -3 18 -41 40 -85 35 -70 43 -110 21 -110
-7 0 -111 208 -111 222 0 8 63 13 178 16 39 1 72 -2 72 -6z m3078 -6 c5 -5
-101 -216 -109 -216 -22 0 -14 41 21 110 l40 80 -88 0 c-84 0 -112 8 -112 34
0 8 239 1 248 -8z m-1724 -2501 c26 -41 52 -73 56 -70 5 3 28 37 52 75 33 53
48 70 66 70 20 0 17 -7 -35 -89 -32 -49 -65 -98 -73 -111 -15 -22 -17 -20 -80
81 -78 123 -76 119 -53 119 13 0 35 -24 67 -75z"/>
<path d="M4773 9503 c-22 -4 -23 -9 -23 -99 l0 -94 28 0 c80 0 142 44 142 102
0 42 -17 68 -55 84 -34 14 -50 15 -92 7z"/>
<path d="M6290 9410 c0 -3 -14 -38 -30 -79 -17 -40 -30 -75 -30 -77 0 -2 27
-4 60 -4 42 0 60 4 59 13 0 12 -58 156 -59 147z"/>
<path d="M7680 9400 l0 -100 45 0 c60 0 100 22 114 61 14 40 14 62 0 92 -15
32 -49 47 -109 47 l-50 0 0 -100z"/>
<path d="M8493 9503 c-22 -4 -23 -9 -23 -99 l0 -94 35 0 c78 0 135 45 135 107
0 63 -69 103 -147 86z"/>
</g>
</svg>
