<?xml version="1.0" standalone="no"?>
<!DOCTYPE svg PUBLIC "-//W3C//DTD SVG 20010904//EN"
 "http://www.w3.org/TR/2001/REC-SVG-20010904/DTD/svg10.dtd">
<svg version="1.0" xmlns="http://www.w3.org/2000/svg"
 width="1280.000000pt" height="2228.000000pt" viewBox="0 0 1280.000000 2228.000000"
 preserveAspectRatio="xMidYMid meet">

<g transform="translate(0.000000,2228.000000) scale(0.100000,-0.100000)"
fill="#000000" stroke="none">
<path d="M0 11140 l0 -11140 6400 0 6400 0 0 11140 0 11140 -6400 0 -6400 0 0
-11140z m9321 4587 c15 -17 239 -293 498 -612 436 -537 470 -581 457 -600 -7
-11 -678 -1055 -1491 -2320 -813 -1265 -1526 -2374 -1584 -2465 -59 -91 -246
-382 -417 -647 -170 -266 -313 -483 -319 -482 -5 0 -730 1129 -1610 2509 -880
1380 -1669 2617 -1752 2747 -84 131 -166 261 -183 288 -17 28 -84 133 -150
235 -66 102 -119 192 -117 201 1 9 184 278 407 597 l405 581 2915 1 2915 0 26
-33z m-5848 -7454 c74 -34 105 -60 137 -116 25 -43 30 -63 30 -117 -1 -110
-46 -181 -145 -226 -49 -23 -71 -44 -45 -44 18 0 81 -63 100 -100 10 -20 30
-82 44 -139 30 -124 58 -165 119 -182 60 -16 72 -23 75 -48 5 -33 -30 -40
-171 -31 -171 10 -182 20 -211 201 -28 170 -55 232 -115 264 -34 17 -124 28
-163 20 l-28 -7 0 -141 c1 -154 10 -221 32 -243 8 -8 34 -18 58 -22 50 -8 71
-32 51 -56 -19 -23 -432 -24 -451 -1 -20 24 -3 55 30 55 48 0 77 16 89 51 14
42 15 719 1 771 -10 36 -44 58 -90 58 -27 0 -46 28 -33 48 13 22 126 30 418
28 204 -1 224 -3 268 -23z m1908 -4 l61 -23 17 23 c12 15 26 22 41 19 27 -3
30 -11 50 -176 12 -94 12 -104 -4 -120 -23 -23 -44 -8 -78 54 -102 187 -312
236 -387 91 -18 -35 -22 -55 -17 -82 14 -71 60 -100 286 -179 166 -58 238
-124 266 -243 41 -174 -114 -361 -316 -379 -70 -7 -156 10 -239 47 -42 19 -47
19 -56 4 -26 -43 -32 -47 -53 -41 -31 10 -41 60 -44 221 l-3 140 27 3 c24 3
30 -4 68 -80 77 -154 175 -226 295 -216 161 13 227 210 104 306 -37 29 -76 47
-186 85 -189 66 -255 114 -293 215 -26 69 -25 116 4 177 39 85 128 154 226
176 56 13 164 2 231 -22z m3809 21 c52 -5 116 -16 141 -25 131 -45 201 -191
159 -332 -32 -104 -132 -167 -307 -190 -59 -7 -133 -13 -163 -11 l-55 3 -7
-60 c-4 -33 -5 -109 -1 -168 7 -127 19 -148 88 -166 32 -8 45 -16 45 -29 0
-39 -17 -42 -216 -42 -157 0 -194 3 -204 15 -19 23 -5 42 47 67 38 18 49 30
54 53 4 17 7 195 8 396 1 412 4 396 -74 421 -46 15 -61 53 -26 66 31 11 404
13 511 2z m886 -4 c9 -3 14 -15 12 -28 -2 -16 -16 -27 -53 -40 -27 -10 -55
-25 -62 -34 -20 -27 -26 -177 -20 -479 3 -203 9 -298 18 -318 9 -20 25 -31 58
-41 53 -15 73 -38 51 -60 -12 -12 -52 -15 -203 -17 -163 -1 -191 1 -205 15
-23 22 -5 49 38 57 61 13 60 9 60 395 0 344 -7 449 -33 466 -6 5 -24 11 -39
14 -15 4 -33 12 -39 20 -14 17 -3 52 18 56 29 5 383 0 399 -6z m848 -14 c112
-51 168 -129 168 -231 0 -106 -50 -183 -148 -228 l-56 -25 51 -45 c58 -51 72
-79 103 -202 34 -142 64 -184 138 -197 43 -8 60 -21 60 -45 0 -32 -38 -38
-174 -29 -174 11 -176 13 -216 230 -37 202 -68 242 -198 256 -100 10 -102 6
-101 -144 1 -151 10 -227 30 -248 8 -8 35 -18 59 -22 50 -8 71 -32 51 -56 -19
-23 -432 -24 -451 -1 -14 17 -7 43 12 49 7 3 30 7 50 11 69 11 71 18 69 429
-1 216 -6 374 -12 393 -10 31 -47 53 -89 53 -27 0 -46 28 -33 48 13 22 126 30
418 28 206 -1 223 -3 269 -24z m-9290 -12 c3 -14 9 -73 12 -131 6 -96 5 -106
-11 -113 -29 -11 -51 2 -80 47 -68 104 -108 126 -246 134 l-101 6 4 -389 c3
-347 5 -392 21 -421 17 -32 50 -47 121 -55 37 -4 55 -30 37 -52 -12 -14 -48
-16 -266 -16 -218 0 -254 2 -266 16 -21 25 2 48 56 56 60 9 94 41 106 99 10
53 11 399 2 607 l-6 152 -68 0 c-107 0 -161 -16 -214 -62 -26 -23 -56 -62 -68
-87 -23 -47 -48 -61 -72 -41 -19 16 -19 41 1 170 l16 105 508 0 509 0 5 -25z
m938 11 c11 -9 50 -241 44 -257 -7 -17 -52 -19 -59 -1 -11 30 -102 130 -140
155 -40 26 -49 27 -189 30 l-148 4 -10 -27 c-5 -14 -10 -96 -10 -182 l0 -156
82 5 c80 5 83 6 114 42 18 21 36 51 39 66 8 37 29 53 55 45 19 -6 20 -14 20
-199 0 -157 -3 -196 -15 -206 -26 -22 -47 -7 -65 48 -28 87 -61 109 -170 114
l-55 3 -3 -163 c-2 -132 0 -168 13 -193 26 -49 71 -62 200 -57 95 3 119 8 173
32 67 31 109 71 142 137 25 47 45 58 68 35 15 -15 15 -25 -7 -134 -13 -64 -28
-126 -33 -136 -10 -18 -24 -19 -436 -13 -369 5 -427 8 -441 22 -20 20 -4 49
30 53 13 2 38 8 56 13 55 17 58 40 58 440 -1 406 2 392 -84 423 -51 18 -64 39
-40 63 11 11 798 6 811 -6z m2104 4 c14 -4 44 -142 47 -215 2 -49 0 -55 -19
-58 -16 -2 -31 10 -58 47 -50 68 -121 129 -165 141 -44 12 -288 13 -295 1 -3
-5 -9 -86 -12 -180 l-7 -171 67 0 c101 0 128 16 166 94 31 65 42 74 69 57 12
-8 14 -43 12 -203 -1 -106 -5 -196 -7 -200 -3 -5 -16 -8 -29 -8 -19 0 -26 7
-34 38 -26 94 -71 128 -176 134 l-60 3 1 -172 c1 -193 6 -212 70 -233 50 -17
234 -7 296 15 60 21 128 81 159 139 13 25 29 48 36 51 19 7 41 -5 45 -23 3
-17 -21 -146 -44 -231 l-11 -44 -430 6 c-357 5 -433 8 -445 20 -24 25 0 50 60
62 85 16 83 6 83 441 0 418 3 398 -75 424 -51 17 -65 32 -51 58 10 19 23 19
403 15 216 -2 398 -6 404 -8z m1754 -5 c80 -4 243 -9 362 -9 197 -1 217 -3
222 -18 10 -35 35 -169 38 -207 2 -29 -2 -41 -15 -50 -15 -9 -22 -6 -43 19
-94 113 -121 139 -168 161 -49 23 -60 24 -280 24 -179 0 -227 -3 -223 -12 27
-63 88 -220 133 -343 158 -433 180 -484 219 -505 22 -12 38 -12 97 -2 128 22
198 66 249 158 33 58 49 69 74 50 17 -12 17 -17 1 -102 -22 -111 -37 -165 -50
-182 -8 -12 -75 -13 -363 -10 -231 3 -357 8 -364 15 -23 23 -5 47 45 59 68 17
72 23 57 87 -13 60 -66 206 -78 217 -4 4 -76 5 -159 2 l-152 -4 -31 -97 c-50
-153 -41 -188 51 -205 44 -8 66 -37 44 -58 -18 -19 -356 -14 -368 5 -16 25 -6
38 45 61 63 28 80 51 132 186 20 52 42 111 50 130 7 19 37 100 65 180 29 80
77 204 106 275 30 72 54 134 54 138 0 4 8 19 17 33 14 22 21 25 52 20 20 -4
101 -11 181 -16z m1097 8 c5 -7 83 -165 174 -350 90 -186 167 -338 171 -338
16 0 186 335 284 563 l59 137 159 0 c133 0 162 -3 177 -16 29 -26 8 -51 -56
-64 -80 -17 -85 -30 -96 -259 -13 -282 -11 -541 4 -571 8 -17 26 -28 54 -35
52 -13 67 -27 58 -54 -6 -20 -12 -21 -214 -21 -214 0 -231 3 -231 41 0 18 9
22 68 34 59 12 62 23 72 341 5 159 12 304 15 322 3 18 2 32 -4 32 -12 0 -221
-414 -286 -565 -69 -163 -73 -171 -91 -186 -24 -20 -42 -2 -74 71 -53 124
-327 677 -339 684 -9 6 -11 -70 -9 -323 3 -320 4 -331 24 -351 12 -12 41 -24
69 -28 55 -8 79 -33 55 -56 -11 -10 -62 -15 -202 -19 -160 -5 -188 -4 -199 9
-20 24 1 46 56 60 63 17 83 38 94 104 13 76 22 636 11 683 -11 52 -42 83 -96
96 -45 12 -61 29 -50 56 4 12 33 15 169 15 120 0 167 -3 174 -12z m4608 -13
c14 -18 49 -229 42 -249 -12 -30 -45 -17 -81 33 -46 62 -109 119 -152 137 -36
15 -299 20 -308 6 -2 -4 -8 -85 -12 -180 l-7 -172 67 0 c101 0 128 16 166 94
32 68 38 73 69 57 16 -9 17 -26 14 -202 -2 -105 -6 -196 -9 -200 -3 -5 -16 -9
-29 -9 -21 0 -27 8 -40 55 -25 85 -68 113 -185 118 l-45 2 1 -165 c1 -95 6
-177 13 -193 18 -47 67 -60 201 -55 91 3 126 9 165 27 60 27 127 89 150 141
20 44 38 55 66 40 20 -11 26 -58 11 -75 -5 -6 -14 -39 -20 -75 -7 -36 -17 -83
-23 -104 l-11 -39 -430 6 c-356 5 -434 8 -446 20 -25 26 0 53 58 61 87 12 85
0 85 437 0 424 3 407 -77 431 -49 14 -63 30 -49 56 10 19 23 19 408 15 311 -4
400 -8 408 -18z m-5345 -285 c18 -10 19 -24 19 -200 0 -158 -3 -192 -16 -205
-26 -26 -45 -13 -65 45 -25 75 -52 99 -126 113 l-62 12 0 36 0 36 52 6 c66 8
96 30 128 93 43 83 40 80 70 64z"/>
<path d="M3202 15130 c-188 -269 -342 -494 -342 -500 0 -7 1147 -10 3586 -10
1972 0 3584 4 3582 8 -1 4 -183 229 -403 500 l-400 492 -2841 0 -2840 0 -342
-490z m654 356 c15 -12 16 -16 5 -30 -7 -9 -21 -16 -31 -16 -9 0 -25 -9 -36
-21 -18 -20 -19 -39 -18 -273 0 -173 4 -258 13 -273 6 -13 26 -26 44 -31 22
-6 32 -14 32 -28 0 -17 -10 -19 -125 -25 -69 -3 -133 -3 -143 -1 -24 6 -18 46
8 50 45 9 45 12 44 281 -1 141 -4 267 -8 281 -4 15 -20 31 -39 39 -32 14 -44
45 -20 53 6 2 67 5 134 6 87 0 127 -3 140 -12z m3167 8 c41 -8 36 -40 -9 -54
-22 -8 -39 -21 -45 -37 -12 -33 -11 -469 1 -515 9 -30 17 -39 43 -46 21 -5 33
-15 35 -29 3 -21 -1 -21 -120 -25 -68 -2 -133 0 -146 4 -29 10 -26 42 5 46 46
7 48 20 48 276 0 292 -3 311 -50 326 -35 12 -49 44 -22 53 18 6 227 7 260 1z
m2160 0 c41 -8 36 -40 -9 -54 -22 -8 -39 -21 -45 -37 -12 -33 -11 -469 1 -515
9 -30 17 -39 43 -46 21 -5 33 -15 35 -29 3 -21 -1 -21 -120 -25 -68 -2 -133 0
-146 4 -29 10 -26 42 5 46 46 7 48 20 48 276 0 292 -3 311 -50 326 -35 12 -49
44 -22 53 18 6 227 7 260 1z m-2938 -18 c16 -12 17 -16 6 -30 -7 -9 -24 -16
-37 -16 -12 0 -26 -5 -29 -10 -6 -10 95 -173 115 -185 13 -8 110 134 110 161
0 17 -9 25 -35 34 -41 13 -48 44 -12 54 12 3 74 6 138 6 92 0 119 -3 129 -15
18 -22 -2 -41 -49 -49 -29 -4 -50 -18 -87 -58 -47 -50 -144 -179 -144 -191 0
-9 116 -173 172 -244 44 -56 111 -103 146 -103 16 0 15 -37 0 -42 -7 -3 -84
-4 -171 -4 -125 1 -160 5 -167 16 -12 19 -4 28 33 38 18 5 33 15 35 24 4 19
-115 198 -132 198 -14 0 -126 -165 -126 -186 0 -16 31 -34 58 -34 11 0 26 -7
33 -16 11 -14 11 -18 -4 -29 -22 -16 -283 -13 -299 3 -16 16 9 42 41 42 46 0
84 34 163 148 43 60 81 117 84 126 4 10 -23 57 -77 132 -89 123 -147 184 -178
184 -48 0 -68 29 -33 49 27 17 294 14 317 -3z"/>
<path d="M2880 14476 c0 -2 148 -235 328 -517 180 -283 501 -785 712 -1117
212 -331 450 -704 530 -830 80 -125 566 -885 1079 -1689 513 -805 936 -1463
940 -1463 3 1 64 92 134 203 118 185 253 396 376 587 27 41 662 1029 1411
2195 1537 2392 1542 2400 1628 2531 34 53 62 98 62 100 0 2 -806 3 -1790 2
l-1790 -3 0 -2434 c0 -1339 1 -2435 2 -2437 2 -1 158 239 347 534 944 1470
2255 3511 2276 3542 37 56 266 412 284 442 13 24 23 28 60 28 l43 0 -16 -25
c-9 -14 -139 -216 -288 -448 -149 -232 -290 -451 -313 -487 -23 -36 -221 -344
-440 -685 -219 -341 -426 -663 -459 -715 -34 -52 -105 -161 -156 -243 -334
-520 -867 -1350 -975 -1517 -80 -123 -211 -328 -332 -517 -35 -54 -68 -98 -74
-98 -6 0 -689 1064 -1519 2365 l-1509 2365 41 3 c22 2 41 2 43 0 1 -2 649
-1018 1440 -2258 791 -1240 1444 -2264 1451 -2275 12 -16 14 361 14 2423 l0
2442 -1770 0 c-973 0 -1770 -2 -1770 -4z m770 -124 c0 -10 -31 -55 -44 -64 -6
-4 -88 -8 -182 -8 -94 0 -173 -3 -177 -6 -3 -3 30 -77 74 -165 43 -88 79 -164
79 -169 0 -5 -9 -24 -20 -42 l-19 -32 -110 225 c-60 123 -111 231 -113 239 -3
13 26 16 197 20 110 3 226 7 258 8 31 1 57 -1 57 -6z m5993 -2 c137 0 167 -3
167 -14 0 -18 -208 -440 -218 -444 -5 -1 -16 12 -26 30 l-18 33 76 153 c42 84
76 157 76 162 0 6 -65 10 -167 10 -93 0 -173 4 -179 8 -14 10 -44 54 -44 66 0
5 34 6 83 3 45 -4 157 -7 250 -7z m-3392 -4869 c3 -1 50 -71 104 -156 54 -85
101 -155 104 -155 3 0 51 70 106 155 54 85 103 155 107 156 4 0 22 1 38 1 17
0 32 -1 35 -1 2 -1 -31 -56 -75 -123 -43 -68 -107 -167 -140 -220 -34 -54 -66
-98 -70 -98 -13 0 -289 439 -278 442 8 3 45 2 69 -1z"/>
<path d="M3149 8223 l-36 -4 -7 -67 c-3 -37 -6 -122 -6 -190 0 -103 3 -124 16
-129 28 -11 200 23 238 47 87 53 116 183 59 264 -16 22 -43 48 -60 59 -33 19
-134 29 -204 20z"/>
<path d="M8978 8208 c-15 -11 -17 -38 -15 -203 l2 -190 97 1 c142 2 196 34
233 137 40 111 -2 215 -101 249 -59 21 -193 24 -216 6z"/>
<path d="M10604 8223 l-41 -4 -6 -82 c-4 -45 -7 -131 -7 -190 0 -90 3 -109 16
-114 28 -11 200 23 238 47 20 12 48 43 63 68 56 95 23 211 -75 261 -25 13
-126 21 -188 14z"/>
<path d="M6177 8013 c-3 -10 -28 -78 -56 -152 -28 -74 -50 -135 -49 -136 2 -2
56 -5 121 -7 133 -5 132 -6 98 73 -10 24 -35 88 -56 142 -21 53 -41 97 -45 97
-4 0 -10 -8 -13 -17z"/>
</g>
</svg>
