<?xml version="1.0" standalone="no"?>
<!DOCTYPE svg PUBLIC "-//W3C//DTD SVG 20010904//EN"
 "http://www.w3.org/TR/2001/REC-SVG-20010904/DTD/svg10.dtd">
<svg version="1.0" xmlns="http://www.w3.org/2000/svg"
 width="1280.000000pt" height="2228.000000pt" viewBox="0 0 1280.000000 2228.000000"
 preserveAspectRatio="xMidYMid meet">

<g transform="translate(0.000000,2228.000000) scale(0.100000,-0.100000)"
fill="#000000" stroke="none">
<path d="M0 11140 l0 -11140 6400 0 6400 0 0 11140 0 11140 -6400 0 -6400 0 0
-11140z m5334 2824 c4 -9 0 -24 -8 -33 -17 -19 -110 -200 -148 -286 -44 -104
-103 -288 -118 -370 -5 -27 -14 -75 -20 -105 -26 -137 -30 -174 -30 -299 0
-74 5 -163 11 -200 16 -97 49 -243 60 -263 5 -10 9 -23 9 -31 0 -7 9 -29 20
-50 11 -20 20 -45 20 -55 0 -9 -26 -53 -57 -97 -31 -44 -86 -121 -123 -172
-36 -50 -82 -116 -103 -147 -43 -63 -54 -63 -76 1 -7 21 -19 52 -25 68 -67
163 -106 391 -106 610 0 225 35 415 115 620 9 22 19 49 22 60 4 11 34 74 68
140 105 207 230 381 384 537 47 48 89 87 92 88 4 0 10 -7 13 -16z m2209 -102
c124 -135 214 -252 285 -372 60 -103 132 -244 132 -260 0 -7 7 -24 14 -38 26
-47 44 -96 56 -147 6 -27 15 -66 19 -85 5 -19 13 -46 19 -60 15 -34 42 -271
42 -372 0 -121 -27 -323 -55 -418 -9 -30 -23 -80 -30 -110 -13 -51 -19 -69
-56 -158 -8 -19 -20 -31 -28 -30 -8 2 -46 48 -85 103 -38 55 -109 155 -158
222 -48 66 -88 127 -88 135 0 7 9 27 19 44 11 18 29 67 41 110 12 44 28 99 35
124 27 88 37 311 21 486 -7 88 -18 169 -24 180 -6 11 -15 42 -21 69 -22 107
-33 151 -46 180 -7 17 -25 66 -40 110 -15 44 -33 90 -41 102 -8 12 -23 44 -33
71 -11 27 -40 83 -65 124 -46 76 -57 109 -33 107 6 0 60 -53 120 -117z m47
-1631 c0 -4 21 -36 48 -73 26 -37 74 -105 107 -153 33 -47 81 -115 108 -150
26 -35 47 -71 47 -80 0 -9 -15 -40 -34 -68 -18 -29 -57 -90 -86 -137 -29 -47
-80 -128 -115 -180 -34 -52 -79 -123 -101 -158 -21 -34 -75 -117 -119 -185
-68 -102 -158 -245 -200 -316 -5 -9 -21 -32 -35 -51 -14 -19 -29 -42 -35 -51
-5 -9 -29 -49 -53 -88 -24 -40 -67 -107 -95 -149 -55 -83 -55 -82 -117 -182
-22 -36 -57 -91 -78 -122 -33 -52 -90 -141 -190 -298 -19 -30 -60 -93 -91
-140 -31 -47 -83 -129 -115 -183 -47 -77 -62 -95 -72 -86 -15 12 -133 189
-210 314 -27 44 -76 121 -109 172 -33 50 -82 127 -109 170 -61 96 -153 238
-271 420 -49 76 -97 153 -107 170 -10 18 -64 104 -120 191 -57 87 -107 165
-113 174 -5 9 -44 69 -85 132 -41 64 -102 159 -135 211 -33 52 -94 147 -135
210 -41 64 -79 124 -85 133 -5 9 -18 28 -27 41 -28 38 -22 69 30 140 26 36 65
92 87 124 22 31 72 103 111 160 l71 102 1194 5 c1099 5 1239 2 1239 -19z
m-2405 -2997 c14 -9 33 -30 41 -47 14 -27 14 -34 -1 -73 -9 -24 -25 -46 -36
-49 -25 -8 -24 -37 1 -60 10 -9 22 -36 25 -59 5 -32 13 -45 36 -58 17 -10 29
-25 29 -38 0 -19 -5 -21 -57 -18 -55 3 -59 5 -75 38 -9 19 -19 54 -23 78 -3
24 -16 51 -28 62 -71 67 -124 -47 -57 -123 17 -19 30 -40 30 -46 0 -14 -176
-16 -184 -2 -10 15 3 36 27 46 21 10 22 16 25 145 3 146 -1 180 -22 180 -7 0
-19 6 -25 14 -19 23 9 35 94 38 100 4 166 -5 200 -28z m-767 11 c14 -5 17
-101 4 -109 -5 -3 -24 10 -42 29 -37 39 -91 55 -115 35 -12 -10 -15 -40 -15
-144 0 -140 2 -148 52 -179 17 -11 25 -23 22 -32 -5 -12 -26 -15 -104 -15
-116 0 -130 10 -77 54 l37 31 0 128 c0 136 -8 167 -41 167 -35 0 -90 -32 -100
-57 -12 -33 -33 -24 -37 17 -5 50 5 78 31 82 31 4 369 -2 385 -7z m385 -17
c19 -22 24 -98 6 -98 -6 0 -20 11 -31 25 -27 35 -70 55 -116 55 -51 0 -62 -14
-62 -76 0 -45 3 -52 22 -58 17 -4 31 3 54 25 18 17 37 29 42 25 11 -7 11 -141
-1 -152 -4 -4 -23 7 -41 25 -51 49 -70 40 -74 -35 -4 -84 17 -98 121 -80 35 6
52 15 68 37 23 32 59 39 59 12 0 -10 -8 -37 -17 -60 l-18 -43 -177 0 c-102 0
-178 4 -178 9 0 21 13 41 26 41 28 0 36 40 32 181 -3 132 -4 139 -26 155 -45
31 -13 39 145 36 135 -3 150 -5 166 -24z m850 0 c19 -23 23 -83 5 -94 -6 -4
-19 4 -31 20 -26 37 -68 56 -120 56 -52 0 -57 -8 -57 -80 0 -34 4 -50 16 -54
19 -7 52 9 74 37 27 33 39 13 36 -63 -2 -39 -6 -73 -9 -76 -3 -4 -20 8 -38 25
-20 20 -40 31 -53 29 -19 -3 -21 -9 -21 -68 0 -59 2 -66 25 -77 40 -18 128 2
162 38 49 51 68 32 42 -41 l-18 -50 -173 0 c-163 0 -173 1 -173 19 0 10 10 25
23 34 21 14 22 20 22 160 0 127 -2 148 -19 166 -37 41 -19 46 140 43 136 -3
151 -5 167 -24z m314 21 c26 1 36 -26 31 -85 -3 -43 -17 -49 -34 -16 -20 39
-61 63 -101 60 -31 -2 -39 -8 -48 -32 -8 -25 -6 -31 18 -52 16 -13 35 -24 43
-24 35 0 110 -42 132 -73 35 -52 30 -96 -19 -151 l-41 -46 -69 0 c-41 0 -69 4
-69 10 0 6 -12 9 -27 8 -26 -3 -29 0 -42 55 -14 61 -8 83 21 72 8 -3 21 -20
29 -37 8 -17 30 -40 50 -51 36 -21 37 -21 78 -3 35 16 41 23 41 50 0 40 -17
54 -106 89 -86 33 -105 52 -111 110 -4 36 -1 48 23 76 37 44 59 52 124 45 30
-3 65 -5 77 -5z m805 1 c24 0 32 -11 77 -104 28 -57 55 -116 61 -130 5 -14 15
-26 22 -26 12 0 118 206 118 229 0 19 27 29 85 33 54 3 60 1 63 -17 2 -13 -5
-24 -20 -30 -22 -10 -23 -14 -26 -162 -2 -144 -1 -153 18 -163 11 -6 20 -20
20 -30 0 -18 -7 -20 -85 -20 -76 0 -85 2 -85 18 0 11 8 26 19 36 13 12 20 37
24 91 4 41 10 93 13 115 4 23 3 40 -3 40 -9 0 -77 -129 -122 -232 -26 -58 -47
-61 -67 -10 -8 20 -19 44 -24 52 -6 8 -15 26 -21 40 -20 47 -60 125 -70 135
-5 5 -9 -36 -9 -108 0 -116 0 -118 25 -127 15 -6 25 -17 25 -30 0 -18 -6 -20
-75 -20 -85 0 -95 12 -51 59 22 24 24 37 29 155 l5 130 -30 29 c-39 39 -31 62
20 53 20 -3 49 -6 64 -6z m729 0 c77 -22 116 -94 82 -153 -22 -38 -93 -77
-141 -77 -18 0 -42 -5 -53 -10 -28 -16 -25 -77 6 -120 41 -55 36 -60 -60 -60
-72 0 -85 2 -85 16 0 9 11 27 25 40 25 23 25 25 23 168 -3 138 -4 144 -27 163
-14 11 -21 25 -17 31 9 15 196 16 247 2z m315 -2 c3 -5 -3 -20 -15 -32 -19
-21 -21 -34 -21 -168 0 -132 2 -146 20 -163 11 -10 20 -26 20 -37 0 -16 -9
-18 -80 -18 -70 0 -80 2 -80 18 0 9 7 26 15 36 12 15 15 52 15 162 0 122 -2
145 -19 165 -10 13 -16 29 -14 36 5 14 150 15 159 1z m323 6 c87 -18 122 -117
61 -174 -32 -30 -38 -54 -16 -67 7 -4 20 -30 28 -58 10 -37 22 -55 45 -70 18
-11 32 -28 33 -37 0 -15 -9 -18 -55 -18 -64 0 -95 20 -95 61 0 41 -39 119 -65
131 -42 19 -55 5 -55 -61 0 -54 3 -62 25 -77 14 -9 25 -25 25 -35 0 -17 -9
-19 -95 -19 -104 0 -119 11 -69 48 l27 19 -2 149 c-2 146 -2 149 -27 168 -19
14 -22 21 -13 32 12 15 185 20 248 8z m509 -16 c6 -6 12 -30 12 -54 0 -51 -18
-59 -44 -19 -19 28 -76 48 -126 43 -34 -3 -35 -5 -41 -53 -8 -66 -3 -77 35
-73 21 2 34 10 41 26 5 12 18 22 28 22 16 0 18 -9 15 -82 -3 -86 -19 -113 -38
-64 -11 30 -57 53 -73 37 -9 -9 -12 -54 -8 -113 3 -51 161 -34 194 22 10 16
22 30 27 30 19 0 21 -44 5 -86 l-17 -44 -168 0 c-187 0 -202 5 -149 56 l30 29
-3 138 c-3 132 -4 139 -27 156 -13 10 -22 25 -19 32 4 11 35 13 159 11 86 -2
160 -8 167 -14z m-2060 -3 c6 -5 13 -29 17 -52 9 -58 -13 -67 -54 -21 -29 32
-31 33 -125 36 -111 4 -110 5 -77 -88 19 -55 33 -70 46 -51 3 6 14 11 24 11 9
0 30 13 46 30 15 16 32 27 37 24 12 -8 10 -164 -3 -164 -6 0 -25 16 -43 35
-40 42 -56 44 -56 8 0 -48 26 -107 53 -123 22 -12 31 -12 64 -1 21 7 52 27 70
44 27 26 33 28 39 14 3 -9 -1 -36 -8 -59 l-15 -43 -146 -3 c-155 -3 -171 3
-128 40 17 14 18 20 8 50 -19 52 -21 53 -85 50 -52 -3 -61 -7 -66 -25 -10 -37
-7 -64 9 -77 34 -28 17 -40 -55 -40 -55 0 -70 3 -70 15 0 8 9 19 19 24 10 6
29 32 41 58 12 27 26 56 31 65 5 10 9 26 9 35 0 10 7 31 15 47 8 15 15 33 15
38 0 15 52 122 64 131 16 11 313 4 324 -8z"/>
<path d="M5180 12159 c-14 -14 -52 -65 -85 -113 -33 -49 -84 -120 -112 -160
-29 -39 -53 -77 -53 -83 0 -10 292 -13 1434 -13 843 0 1437 4 1440 9 3 5 -13
35 -37 68 -81 111 -107 148 -162 231 l-56 82 -47 1 c-26 0 -553 1 -1172 2
l-1125 2 -25 -26z m1055 -19 c32 0 34 -2 37 -36 6 -72 57 -70 58 2 0 28 4 32
33 36 45 5 67 -1 67 -18 0 -8 -4 -14 -8 -14 -17 0 -92 -79 -92 -98 0 -10 25
-46 56 -80 65 -73 66 -93 2 -85 -64 7 -69 10 -63 36 4 15 -1 32 -16 51 l-22
28 -19 -23 c-13 -17 -17 -34 -13 -59 l6 -35 -52 0 c-55 0 -72 14 -44 37 20 15
65 61 83 82 21 26 14 43 -43 101 -30 31 -55 61 -55 65 0 11 22 19 38 14 8 -2
29 -4 47 -4z m-915 -5 c0 -2 -10 -23 -21 -45 -19 -35 -21 -51 -15 -108 4 -37
14 -77 22 -89 24 -38 18 -44 -38 -41 -47 3 -53 5 -49 23 8 36 5 219 -3 243 -8
21 -6 22 48 22 31 0 56 -2 56 -5z m1274 -4 c3 -5 -1 -14 -9 -21 -21 -17 -20
-184 0 -220 22 -38 19 -40 -41 -40 -54 0 -56 1 -48 23 13 37 17 218 5 230 -24
24 -11 37 38 37 28 0 52 -4 55 -9z m859 -23 c-12 -49 -9 -200 6 -226 13 -25
11 -27 -52 -36 -43 -6 -59 13 -39 45 15 23 16 205 2 214 -5 3 -10 13 -10 21 0
10 13 14 51 14 l51 0 -9 -32z"/>
<path d="M4944 11718 c-3 -5 15 -39 39 -76 77 -117 161 -246 172 -264 39 -63
83 -133 123 -195 26 -39 85 -132 132 -205 46 -73 118 -185 158 -248 72 -110
93 -144 226 -352 33 -51 92 -142 131 -203 40 -60 74 -114 76 -120 2 -5 25 -41
50 -80 109 -166 159 -244 159 -249 0 -3 13 -25 29 -48 16 -24 50 -76 75 -115
48 -75 62 -86 73 -56 4 10 25 44 47 78 23 33 45 68 51 77 8 14 51 82 110 177
6 9 28 43 49 76 21 33 53 82 70 109 17 28 63 100 103 160 39 61 87 136 106
166 19 30 68 107 109 170 41 63 77 120 79 125 2 6 28 46 56 91 105 161 159
245 207 321 27 43 83 130 124 193 41 63 94 144 117 180 23 36 72 111 109 168
36 56 67 108 69 115 3 19 -1391 17 -1398 -1 -9 -24 -5 -1892 4 -1892 10 0 35
35 64 90 11 19 46 75 78 123 33 49 59 91 59 94 0 3 13 22 28 42 16 20 32 43
36 51 11 24 60 101 185 290 83 125 97 147 107 170 4 8 19 31 33 50 34 45 49
70 61 98 5 12 14 22 19 22 5 0 12 8 15 18 3 9 12 26 19 37 33 52 94 147 136
210 54 82 68 105 77 125 4 8 20 31 36 51 15 20 28 40 28 44 0 4 14 24 30 45
17 21 30 41 30 44 0 18 112 176 124 176 30 0 24 -20 -33 -106 -125 -191 -141
-216 -141 -221 0 -3 -13 -22 -28 -42 -15 -20 -37 -53 -47 -75 -11 -21 -26 -40
-32 -43 -7 -3 -13 -9 -13 -15 0 -9 -23 -45 -146 -233 -73 -112 -81 -124 -93
-152 -6 -13 -15 -23 -20 -23 -5 0 -11 -8 -15 -17 -3 -10 -15 -31 -26 -48 -11
-16 -25 -40 -31 -52 -7 -13 -16 -23 -21 -23 -4 0 -8 -6 -8 -12 0 -11 -31 -61
-110 -178 -55 -81 -130 -201 -130 -207 -1 -4 -14 -24 -30 -43 -17 -19 -30 -38
-30 -43 0 -7 -37 -64 -50 -77 -3 -3 -10 -14 -17 -25 -7 -11 -31 -51 -54 -90
-23 -38 -47 -74 -53 -80 -6 -5 -21 -28 -33 -50 -12 -22 -28 -40 -34 -40 -13 0
-113 143 -224 320 -33 53 -81 128 -106 168 -26 40 -72 113 -104 162 -31 50
-66 102 -76 117 -11 15 -19 30 -19 34 0 3 -13 23 -28 43 -16 20 -32 43 -36 51
-9 19 -22 40 -71 115 -47 71 -62 95 -71 115 -4 8 -19 31 -34 50 -15 19 -30 42
-34 50 -11 24 -29 53 -56 90 -27 37 -45 66 -56 90 -4 8 -19 31 -34 50 -15 19
-30 42 -33 50 -4 8 -16 29 -27 45 -11 17 -23 37 -27 45 -3 8 -19 31 -35 51
-15 20 -28 39 -28 42 0 3 -27 46 -60 95 -63 95 -70 112 -44 112 17 0 54 -36
54 -53 0 -5 13 -26 28 -46 16 -20 32 -43 35 -51 7 -15 25 -45 40 -64 29 -39
107 -163 107 -170 0 -4 14 -25 30 -46 17 -21 30 -41 30 -45 0 -4 14 -24 30
-45 17 -21 30 -41 30 -45 0 -4 27 -47 60 -97 33 -49 60 -91 60 -93 0 -2 19
-32 42 -67 48 -71 64 -96 74 -118 4 -8 20 -31 36 -51 15 -20 28 -40 28 -43 0
-4 8 -19 19 -34 42 -61 131 -201 131 -208 0 -3 14 -23 30 -44 17 -21 30 -41
30 -44 0 -4 8 -19 19 -34 45 -65 131 -202 131 -209 1 -4 14 -24 30 -43 17 -19
30 -38 30 -43 0 -19 56 -87 73 -87 4 0 7 425 7 945 0 748 -3 947 -12 950 -24
8 -1389 11 -1394 3z m280 -36 c10 -17 -11 -29 -63 -35 -74 -9 -81 -18 -52 -71
23 -42 23 -76 1 -76 -6 0 -13 8 -16 18 -4 9 -20 45 -37 78 -43 87 -37 94 72
94 49 0 92 -4 95 -8z m2489 -4 c2 -7 -9 -36 -24 -65 -16 -29 -29 -58 -29 -66
0 -19 -47 -50 -55 -37 -3 6 6 32 21 59 14 27 24 55 22 61 -2 7 -28 15 -58 17
-58 4 -77 14 -66 32 10 16 183 15 189 -1z m-1233 -1958 c0 -5 -19 -37 -43 -72
-24 -35 -46 -71 -50 -81 -5 -15 -10 -16 -27 -7 -12 6 -24 19 -27 28 -4 9 -22
37 -40 61 -18 24 -33 52 -33 62 0 35 28 19 65 -36 20 -30 40 -55 46 -55 5 0
14 11 19 24 20 54 90 113 90 76z"/>
<path d="M5031 9211 c-9 -5 -14 -30 -15 -67 l-1 -59 44 -3 c108 -8 127 118 20
134 -19 3 -40 1 -48 -5z"/>
<path d="M7384 9196 c-3 -7 -4 -38 -2 -67 l3 -54 37 -3 c70 -6 114 72 68 118
-24 24 -98 28 -106 6z"/>
<path d="M8033 9214 c-9 -4 -13 -28 -13 -70 0 -67 1 -68 50 -64 46 3 70 27 70
69 0 21 -6 44 -14 50 -16 14 -75 23 -93 15z"/>
<path d="M6240 9103 c0 -9 -8 -25 -17 -35 -19 -21 -10 -35 27 -39 43 -6 50 6
32 51 -17 40 -42 54 -42 23z"/>
</g>
</svg>
